<?xml version="1.0" encoding="UTF-8" standalone="no"?>
<svg
   xmlns:dc="http://purl.org/dc/elements/1.1/"
   xmlns:cc="http://creativecommons.org/ns#"
   xmlns:rdf="http://www.w3.org/1999/02/22-rdf-syntax-ns#"
   xmlns:svg="http://www.w3.org/2000/svg"
   xmlns="http://www.w3.org/2000/svg"
   xmlns:sodipodi="http://sodipodi.sourceforge.net/DTD/sodipodi-0.dtd"
   xmlns:inkscape="http://www.inkscape.org/namespaces/inkscape"
   height="16"
   viewBox="0 0 16 16"
   width="16"
   version="1.1"
   id="svg76"
   sodipodi:docname="2D.svg"
   inkscape:version="0.92.5 (2060ec1f9f, 2020-04-08)">
  <metadata
     id="metadata82">
    <rdf:RDF>
      <cc:Work
         rdf:about="">
        <dc:format>image/svg+xml</dc:format>
        <dc:type
           rdf:resource="http://purl.org/dc/dcmitype/StillImage" />
      </cc:Work>
    </rdf:RDF>
  </metadata>
  <defs
     id="defs80" />
  <sodipodi:namedview
     pagecolor="#ffffff"
     bordercolor="#666666"
     borderopacity="1"
     objecttolerance="10"
     gridtolerance="10"
     guidetolerance="10"
     inkscape:pageopacity="0"
     inkscape:pageshadow="2"
     inkscape:window-width="1920"
     inkscape:window-height="1007"
     id="namedview78"
     showgrid="false"
     inkscape:zoom="25.59375"
     inkscape:cx="7.2682774"
     inkscape:cy="4.6476162"
     inkscape:window-x="0"
     inkscape:window-y="0"
     inkscape:window-maximized="1"
     inkscape:current-layer="svg76" />
  <path
     d="m 14.999026,12.016599 a 1,1 0 0 1 -0.291316,0.691406 l -2,2 a 1,1 0 0 1 -1.414062,0 1,1 0 0 1 0,-1.414062 l 0.292968,-0.292969 H 3.0006784 l 0,-8.5859377 -0.292969,0.292969 a 1,1 0 0 1 -1.414062,0 1,1 0 0 1 0,-1.414062 l 2,-2 a 1,1 0 0 1 1.414062,0 l 2.0000002,2 a 1,1 0 0 1 0.2910157,0.720703 1,1 0 0 1 -0.2910157,0.693359 1,1 0 0 1 -1.4140622,0 l -0.292969,-0.292969 0,6.5859377 h 6.5859376 l -0.292968,-0.292969 a 1,1 0 0 1 0,-1.4140619 1,1 0 0 1 1.414062,0 l 2,1.9999999 a 1,1 0 0 1 0.291316,0.722656 z"
     id="path74"
     inkscape:connector-curvature="0"
     style="fill:#e0e0e0" />
</svg>
